# xmcd CD database file
#
# Track frame offsets:
#	150
#	20112
#	38387
#	66637
#	88462
#	105362
#	125075
#	151175
#	171337
#	187400
#
# Disc length: 2850 seconds
#
# Revision: 2
# Processed by: cddbd v1.5.2PL0 Copyright (c) Steve Scherf et al.
# Submitted via: CDex 1.51
#
DISCID=8f0b200a
DTITLE=Coco Robicheaux - Spiritland
DYEAR=1994
DGENRE=Rock
TTITLE0=Walking With The Spirit
TTITLE1=Pit Bull
TTITLE2=Spiritland
TTITLE3=Broken String
TTITLE4=We Will Fly Away
TTITLE5=Working Man
TTITLE6=I Knew Without Asking
TTITLE7=Saturday Night Before Christmas
TTITLE8=Cryin Inside
TTITLE9=St. John's Eve
EXTD=YEAR: 1994
EXTT0=
EXTT1=
EXTT2=
EXTT3=
EXTT4=
EXTT5=
EXTT6=
EXTT7=
EXTT8=
EXTT9=
PLAYORDER=
